<?xml version="1.0" encoding="UTF-8"?>
<svg width="565px" height="935px" viewBox="0 0 565 935" version="1.1" xmlns="http://www.w3.org/2000/svg" xmlns:xlink="http://www.w3.org/1999/xlink">
    <!-- Generator: Sketch 56.2 (81672) - https://sketch.com -->
    <title>Logo</title>
    <desc>Created with Sketch.</desc>
    <g id="Social-Avatars" stroke="none" stroke-width="1" fill="none" fill-rule="evenodd">
        <g id="Avatar" transform="translate(-250.000000, -73.000000)">
            <g id="Logo" transform="translate(123.000000, 73.000000)">
                <g id="Green" transform="translate(73.000000, 0.000000)" fill="#B8E3D0">
                    <polygon id="Rectangle-Copy-9" transform="translate(164.440465, 807.904024) rotate(19.000000) translate(-164.440465, -807.904024) " points="20 724 252.044893 729.444538 308.880929 891.808048 77.3941366 891.808048"></polygon>
                    <polygon id="Rectangle-Copy-4" transform="translate(389.000000, 580.000000) rotate(19.000000) translate(-389.000000, -580.000000) " points="117.760053 496.226957 602.59364 496.935225 660.239947 663.773043 175.40636 663.064775"></polygon>
                    <polygon id="Rectangle-Copy-3" transform="translate(313.530482, 344.648039) rotate(19.000000) translate(-313.530482, -344.648039) " points="41.1016163 258.285063 527.196603 264.19888 585.959347 431.011015 99.864361 425.097199"></polygon>
                    <polygon id="Rectangle" transform="translate(480.124769, 126.406068) rotate(19.000000) translate(-480.124769, -126.406068) " points="335 43 566.486792 43 625.249537 209.812135 393.762745 209.812135"></polygon>
                </g>
                <g id="White" transform="translate(395.000000, 467.500000) rotate(-11.000000) translate(-395.000000, -467.500000) translate(58.000000, 134.000000)">
                    <g id="Warren" transform="translate(0.000000, 492.000000)">
                        <polygon id="Rectangle" fill="#FFFFFF" points="33.4310526 0.262135793 608.072562 0 574.641509 173.87723 5.76880789e-14 174.139366"></polygon>
                        <path d="M65,143.587351 L66.2650264,31 L88.8773736,31 L83.9753962,112.119819 L112.754747,31 L136.315864,31 L134.418325,112.119819 L160.351366,31 L182.963713,31 L140.743457,143.587351 L116.707955,143.587351 L117.972981,63.8906868 L89.0355019,143.587351 L65,143.587351 Z M237.992362,143.587351 L216.645042,143.587351 L216.80317,125.402596 L192.135155,125.402596 L184.861253,143.587351 L162.090777,143.587351 L212.059321,31 L232.932257,31 L237.992362,143.587351 Z M216.486913,106.4272 L216.645042,62.3094038 L199.725313,106.4272 L216.486913,106.4272 Z M247.163804,143.587351 L269.618023,31 L299.504272,31 C317.214642,31 324.330415,40.0133132 324.330415,52.1891925 C324.330415,55.9842717 323.85603,60.4118642 322.90726,65.3138415 C318.954053,84.7636226 314.052075,90.2981132 304.722506,95.2000906 L310.731381,143.587351 L289.542189,143.587351 L284.79834,99.1532981 L277.208181,99.1532981 L268.352996,143.587351 L247.163804,143.587351 Z M280.845132,80.8104151 L290.016574,80.8104151 C298.081117,80.8104151 300.294913,72.4296151 301.718068,65.3138415 C302.192453,62.6256604 302.666838,59.9374792 302.666838,57.5655547 C302.666838,52.979834 301.243683,49.9753962 295.392936,49.9753962 L287.012136,49.9753962 L280.845132,80.8104151 Z M322.749132,143.587351 L345.203351,31 L375.0896,31 C392.79997,31 399.915743,40.0133132 399.915743,52.1891925 C399.915743,55.9842717 399.441358,60.4118642 398.492589,65.3138415 C394.539381,84.7636226 389.637404,90.2981132 380.307834,95.2000906 L386.316709,143.587351 L365.127517,143.587351 L360.383668,99.1532981 L352.793509,99.1532981 L343.938325,143.587351 L322.749132,143.587351 Z M356.43046,80.8104151 L365.601902,80.8104151 C373.666445,80.8104151 375.880242,72.4296151 377.303396,65.3138415 C377.777781,62.6256604 378.252166,59.9374792 378.252166,57.5655547 C378.252166,52.979834 376.829011,49.9753962 370.978264,49.9753962 L362.597464,49.9753962 L356.43046,80.8104151 Z M398.33446,143.587351 L420.788679,31 L470.124709,31 L466.32963,49.9753962 L438.182792,49.9753962 L432.648302,77.3315925 L456.841932,77.3315925 L453.046853,96.3069887 L428.853223,96.3069887 L423.318732,124.611955 L451.46557,124.611955 L447.670491,143.587351 L398.33446,143.587351 Z M460.637011,143.587351 L483.09123,31 L500.327215,31 L511.712453,88.084317 L522.307049,31 L543.496242,31 L521.042023,143.587351 L504.596679,143.587351 L493.053313,86.6611623 L481.826204,143.587351 L460.637011,143.587351 Z" id="WARREN" fill="#1A2038" fill-rule="nonzero"></path>
                    </g>
                    <g id="For" transform="translate(154.000000, 248.000000)">
                        <polygon id="Rectangle-Copy-2" fill="#FFFFFF" points="33.4310526 -3.44141038e-13 423.514129 0.439433654 390.083077 174.316664 -1.01577953e-13 173.87723"></polygon>
                        <path d="M106,144.2 L128.72,30.28 L178.64,30.28 L174.8,49.48 L146.32,49.48 L140.72,77.16 L165.2,77.16 L161.36,96.36 L136.88,96.36 L127.44,144.2 L106,144.2 Z M175.12,87.24 C181.84,54.6 185.2,45.32 192.56,37.96 C198.64,31.88 205.68,29 216.4,29 C228.24,29 235.28,33.16 239.12,40.04 C242,45.16 242.8,49.32 242.8,56.52 C242.8,63.56 241.2,74.28 238.48,87.24 C231.76,119.88 228.4,129.16 221.04,136.52 C214.96,142.6 207.92,145.48 197.2,145.48 C185.36,145.48 178.32,141.32 174.48,134.44 C171.6,129.32 170.8,125.16 170.8,117.96 C170.8,110.92 172.4,100.2 175.12,87.24 Z M196.56,87.24 C194.32,98.44 192.24,110.76 192.24,117.64 C192.24,122.92 194,126.28 199.28,126.28 C202.16,126.28 204.24,125.16 206.16,123.24 C209.84,119.56 212.24,111.24 217.04,87.24 C219.28,76.04 221.36,63.72 221.36,56.84 C221.36,51.56 219.6,48.2 214.32,48.2 C211.44,48.2 209.36,49.32 207.44,51.24 C203.76,54.92 201.36,63.24 196.56,87.24 Z M240.56,144.2 L263.28,30.28 L293.52,30.28 C311.44,30.28 318.64,39.4 318.64,51.72 C318.64,55.56 318.16,60.04 317.2,65 C313.2,84.68 308.24,90.28 298.8,95.24 L304.88,144.2 L283.44,144.2 L278.64,99.24 L270.96,99.24 L262,144.2 L240.56,144.2 Z M274.64,80.68 L283.92,80.68 C292.08,80.68 294.32,72.2 295.76,65 C296.24,62.28 296.72,59.56 296.72,57.16 C296.72,52.52 295.28,49.48 289.36,49.48 L280.88,49.48 L274.64,80.68 Z" id="FOR" fill="#1A2038" fill-rule="nonzero"></path>
                    </g>
                    <g id="Queens" transform="translate(126.000000, -0.000000)">
                        <polygon id="Rectangle" fill="#FFFFFF" points="33.4310526 0.262135793 547.755581 0 514.324528 173.87723 5.76880789e-14 174.139366"></polygon>
                        <path d="M69.2694642,85.5587019 C75.9108528,53.3005283 79.2315472,44.1290868 86.5054491,36.8551849 C92.5143245,30.8463094 99.4719698,28 110.066566,28 C121.76806,28 128.725706,32.1113358 132.520785,38.9108528 C135.367094,43.9709585 136.157736,48.0822943 136.157736,55.1980679 C136.157736,62.1557132 134.576453,72.7503094 131.888272,85.5587019 C127.144423,108.645434 124.139985,119.872543 120.028649,126.988317 L126.670038,134.104091 L115.601057,145.3312 L109.275925,138.689811 C104.373947,141.694249 98.6813283,143.117404 91.0911698,143.117404 C79.3896755,143.117404 72.4320302,139.006068 68.6369509,132.206551 C65.7906415,127.146445 65,123.035109 65,115.919336 C65,108.961691 66.581283,98.3670943 69.2694642,85.5587019 Z M90.4586566,85.5587019 C88.2448604,96.627683 86.1891925,108.803562 86.1891925,115.603079 C86.1891925,120.821313 87.9286038,124.142008 93.1468377,124.142008 C94.2537358,124.142008 95.2025057,123.983879 96.1512755,123.667623 L91.723683,118.923774 L102.002023,108.487306 L104.690204,111.491743 C106.429615,106.115381 108.169026,97.8927094 110.699079,85.5587019 C112.912875,74.4897208 114.968543,62.3138415 114.968543,55.5143245 C114.968543,50.2960906 113.229132,46.9753962 108.010898,46.9753962 C105.164589,46.9753962 103.108921,48.0822943 101.211381,49.979834 C97.5744302,53.6167849 95.2025057,61.8394566 90.4586566,85.5587019 Z M139.320302,110.85923 L155.607517,29.2650264 L176.796709,29.2650264 L160.193238,112.282385 C159.876981,114.021796 159.718853,115.444951 159.718853,116.709977 C159.718853,121.611955 162.565162,124.142008 167.309011,124.142008 C173.00163,124.142008 176.638581,120.1888 178.061736,113.073026 L194.823336,29.2650264 L216.012528,29.2650264 L199.250928,113.231155 C197.353389,122.718853 194.190823,129.834626 187.707562,135.527245 C181.698687,140.903608 174.89917,143.117404 164.62083,143.117404 C155.607517,143.117404 149.440513,140.587351 144.854792,136.00163 C140.585328,131.732166 138.52966,126.039547 138.52966,118.923774 C138.52966,116.393721 138.845917,113.231155 139.320302,110.85923 Z M209.213011,141.852377 L231.66723,29.2650264 L281.00326,29.2650264 L277.208181,48.2404226 L249.061343,48.2404226 L243.526853,75.5966189 L267.720483,75.5966189 L263.925404,94.5720151 L239.731774,94.5720151 L234.197283,122.876981 L262.344121,122.876981 L258.549042,141.852377 L209.213011,141.852377 Z M271.515562,141.852377 L293.969781,29.2650264 L343.305811,29.2650264 L339.510732,48.2404226 L311.363894,48.2404226 L305.829404,75.5966189 L330.023034,75.5966189 L326.227955,94.5720151 L302.034325,94.5720151 L296.499834,122.876981 L324.646672,122.876981 L320.851592,141.852377 L271.515562,141.852377 Z M333.818113,141.852377 L356.272332,29.2650264 L373.508317,29.2650264 L384.893555,86.3493434 L395.488151,29.2650264 L416.677343,29.2650264 L394.223125,141.852377 L377.777781,141.852377 L366.234415,84.9261887 L355.007306,141.852377 L333.818113,141.852377 Z M413.672906,109.752332 L434.862098,109.752332 C434.387713,112.440513 434.229585,114.654309 434.229585,116.235592 C434.229585,118.923774 434.862098,120.821313 435.968996,121.928211 C437.234023,123.193238 438.973434,124.142008 441.503487,124.142008 C444.349796,124.142008 446.721721,123.509494 448.777389,121.453826 C450.991185,119.24003 452.098083,116.393721 453.046853,111.649872 C453.679366,108.487306 453.837494,105.166611 453.837494,103.269072 C453.837494,98.8414792 451.307442,96.3114264 446.405464,94.0976302 L435.494611,88.8793962 C426.797555,84.7680604 423.318732,78.2848 423.318732,70.5365132 C423.318732,65.7926642 423.793117,61.8394566 424.741887,57.0956075 C426.32317,49.1891925 429.169479,41.4409057 434.229585,36.3808 C439.447819,31.162566 445.614823,28 456.683804,28 C467.2784,28 473.129147,30.5300528 477.714868,35.1157736 C481.035562,38.4364679 482.774974,43.9709585 482.774974,49.6635774 C482.774974,52.8261434 482.616845,56.6212226 481.826204,61.0488151 L460.637011,61.0488151 C461.269525,57.8862491 461.427653,55.8305811 461.427653,54.0911698 C461.427653,51.4029887 460.953268,49.6635774 459.84637,48.5566792 C459.055728,47.7660377 457.632574,46.8172679 455.260649,46.8172679 C452.888725,46.8172679 450.991185,47.4497811 449.251774,49.1891925 C447.354234,51.0867321 446.247336,54.723683 445.772951,57.0956075 C445.298566,59.4675321 444.982309,61.8394566 444.982309,64.0532528 C444.982309,67.6902038 446.879849,70.2202566 450.674928,71.9596679 L459.688242,76.2291321 C471.547864,81.7636226 475.6592,87.1399849 475.6592,96.7858113 C475.6592,101.213404 475.342943,106.273509 474.236045,111.808 C471.705992,124.458264 469.017811,129.992755 464.273962,134.736604 C458.581343,140.429223 451.781826,143.117404 439.605947,143.117404 C429.169479,143.117404 422.844347,140.587351 418.258626,136.00163 C414.621675,132.364679 412.566008,126.988317 412.566008,121.13757 C412.566008,117.816875 412.882264,114.338053 413.672906,109.752332 Z" id="QUEENS" fill="#F1AD03" fill-rule="nonzero"></path>
                    </g>
                </g>
            </g>
        </g>
    </g>
</svg>