<?xml version="1.0" encoding="UTF-8"?>
<svg width="21px" height="17px" viewBox="0 0 21 17" version="1.1" xmlns="http://www.w3.org/2000/svg" xmlns:xlink="http://www.w3.org/1999/xlink">
    <!-- Generator: Sketch 59.1 (86144) - https://sketch.com -->
    <title>Tw Icon</title>
    <desc>Created with Sketch.</desc>
    <g id="Page-1" stroke="none" stroke-width="1" fill="none" fill-rule="evenodd" stroke-linecap="round" stroke-linejoin="round">
        <g id="Desktop---Landing" transform="translate(-318.000000, -677.000000)" stroke="#232444" stroke-width="2">
            <g id="Left">
                <g id="Content" transform="translate(66.000000, 75.000000)">
                    <g id="Social-Icons" transform="translate(180.000000, 591.000000)">
                        <g id="Twitter" transform="translate(63.000000, 0.000000)">
                            <g id="Tw-Icon" transform="translate(10.000000, 12.000000)">
                                <path d="M18.390662,0.00857886169 C17.5901541,0.573236894 16.7038269,1.00510969 15.765813,1.28756581 C14.7345646,0.101817674 13.0727262,-0.313998106 11.6045758,0.246364633 C10.1364255,0.806727372 9.17426557,2.22406921 9.19533102,3.79538336 L9.19533102,4.63132255 C6.21158389,4.70869072 3.38724673,3.28710769 1.67187837,0.844518045 C1.67187837,0.844518045 -1.67187837,8.3679707 5.85157428,11.7117274 C4.12998058,12.8803422 2.07911192,13.4663047 -4.4408921e-14,13.3836058 C7.52345265,17.5633017 16.7187837,13.3836058 16.7187837,3.77030519 C16.7180139,3.53745737 16.6956261,3.30518394 16.6519085,3.07647567 C17.5050707,2.23509709 18.1071344,1.17280205 18.390662,0.00857886169 Z" id="Path"></path>
                            </g>
                        </g>
                    </g>
                </g>
            </g>
        </g>
    </g>
</svg>