<?xml version="1.0" encoding="UTF-8"?>
<svg xmlns="http://www.w3.org/2000/svg" xmlns:xlink="http://www.w3.org/1999/xlink" width="16pt" height="16pt" viewBox="0 0 16 16" version="1.1">
<g id="surface359415">
<path style=" stroke:none;fill-rule:nonzero;fill:rgb(71.764706%,89.411765%,81.176471%);fill-opacity:1;" d="M 9.984375 8 L 14.347656 1.457031 C 14.410156 1.359375 14.417969 1.234375 14.363281 1.128906 C 14.304688 1.023438 14.199219 0.960938 14.078125 0.960938 L 11.730469 0.960938 C 11.625 0.960938 11.527344 1.011719 11.46875 1.097656 L 8 6.078125 L 4.53125 1.097656 C 4.472656 1.011719 4.375 0.960938 4.269531 0.960938 L 1.921875 0.960938 C 1.800781 0.960938 1.695312 1.023438 1.636719 1.128906 C 1.582031 1.234375 1.589844 1.359375 1.652344 1.457031 L 6.015625 8 L 1.652344 14.542969 C 1.589844 14.640625 1.582031 14.765625 1.636719 14.871094 C 1.695312 14.976562 1.800781 15.039062 1.921875 15.039062 L 4.269531 15.039062 C 4.375 15.039062 4.472656 14.988281 4.53125 14.902344 L 8 9.921875 L 11.46875 14.902344 C 11.527344 14.988281 11.625 15.039062 11.730469 15.039062 L 14.078125 15.039062 C 14.199219 15.039062 14.304688 14.976562 14.363281 14.871094 C 14.417969 14.765625 14.410156 14.640625 14.347656 14.542969 Z M 9.984375 8 "/>
</g>
</svg>
